<svg width="33" height="24" viewBox="0 0 33 24" fill="none" xmlns="http://www.w3.org/2000/svg">
<path d="M14.7275 0.0217819C14.5857 0.0346661 14.1088 0.0797634 13.6641 0.118418C10.5316 0.395445 7.73438 1.29095 6.58066 2.39261C5.86523 3.08196 5.15625 4.27382 4.40859 6.03906L4.07344 6.84437L2.30742 6.87658C0.747656 6.90235 0.528516 6.92168 0.373828 7.02476C0.193359 7.1536 0 7.49506 0 7.70122C0 7.9718 0.528516 10.3297 0.61875 10.4715C0.812109 10.7678 1.08281 10.8709 1.68867 10.8709H2.24941L1.91426 11.367C1.53398 11.9275 1.21816 12.6362 1.05059 13.2997C0.883008 13.9633 0.902344 15.4386 1.08926 16.1215C1.34062 17.0493 1.89492 18.0478 2.475 18.5954L2.70703 18.8209V20.5604C2.70703 22.506 2.73926 22.6478 3.15176 23.0021C3.4998 23.292 3.69961 23.3178 5.61387 23.292L7.39277 23.2727L7.6248 23.0987C8.09531 22.7315 8.14687 22.5962 8.18555 21.6299L8.21777 20.7601H16.5H24.7822L24.8145 21.6299C24.8531 22.5962 24.9047 22.7315 25.3752 23.0987L25.6072 23.2727L27.3861 23.292C29.3004 23.3178 29.5002 23.292 29.8482 23.0021C30.2607 22.6542 30.293 22.4996 30.293 20.6055V18.9111L30.6023 18.5697C31.2404 17.8739 31.6529 17.1072 31.9107 16.1473C32.117 15.3935 32.117 13.9762 31.9172 13.2353C31.7367 12.5846 31.3564 11.7793 30.9762 11.2704L30.6797 10.8709H31.2791C31.9172 10.8709 32.1814 10.7743 32.3812 10.4715C32.4779 10.3297 33 7.97824 33 7.70122C33 7.49506 32.8131 7.1536 32.6262 7.02476C32.4715 6.92168 32.2523 6.90235 30.6861 6.87658L28.9266 6.84437L28.5914 6.03906C27.8566 4.26093 27.2508 3.24946 26.4645 2.45704C26.0133 2.01251 25.8393 1.8901 25.2012 1.57442C23.7574 0.865746 22.0365 0.421215 19.6582 0.137745C18.8396 0.0475502 15.3656 -0.0426445 14.7275 0.0217819ZM19.4648 2.65031C21.6047 2.91445 23.1129 3.31389 24.2021 3.90015C24.7951 4.22228 25.1561 4.67325 25.6846 5.74915C26.0648 6.5158 26.6836 8.02334 26.6836 8.16507C26.6836 8.20373 22.9324 8.2295 16.5 8.2295C9.26836 8.2295 6.31641 8.21017 6.31641 8.15863C6.31641 8.11998 6.44531 7.76564 6.6 7.37265C7.21875 5.79424 7.85039 4.62171 8.28867 4.24161C9.22324 3.41697 11.724 2.76628 14.8564 2.53435C15.5912 2.47637 18.7043 2.56012 19.4648 2.65031ZM7.57969 12.488C9.54551 12.8488 10.3061 15.2647 8.89453 16.6691C7.93418 17.6355 6.37441 17.6355 5.41406 16.6691C4.02832 15.2905 4.70508 12.9325 6.60645 12.5137C7.09629 12.4042 7.12207 12.4042 7.57969 12.488ZM26.7867 12.6168C28.1016 13.1065 28.7268 14.6849 28.1209 15.9669C27.5021 17.2812 25.9682 17.7708 24.6533 17.075C24.3375 16.9075 23.8412 16.3921 23.6672 16.0507C23.1967 15.1101 23.3836 13.9182 24.1248 13.1773C24.8273 12.4815 25.8393 12.2689 26.7867 12.6168Z" fill="#2EB573"/>
</svg>
