<svg width="24" height="27" viewBox="0 0 24 27" fill="none" xmlns="http://www.w3.org/2000/svg">
<path d="M11.52 5.46916e-08C13.0328 5.46916e-08 14.5308 0.299315 15.9285 0.880856C17.3262 1.4624 18.5961 2.31477 19.6659 3.38932C20.7356 4.46387 21.5842 5.73954 22.1631 7.14351C22.742 8.54747 23.04 10.0522 23.04 11.5719C23.04 16.3622 19.4046 21.382 12.2883 26.7427C12.0667 26.9097 11.7971 27 11.52 27C11.2429 27 10.9733 26.9097 10.7517 26.7427C3.63542 21.382 0 16.3622 0 11.5719C-7.14979e-09 10.0521 0.29801 8.54729 0.877015 7.14325C1.45602 5.73921 2.30468 4.46349 3.37453 3.38892C4.44438 2.31436 5.71446 1.46201 7.11226 0.880533C8.51006 0.299059 10.0071 -0.000147693 11.52 5.46916e-08ZM11.52 7.71421C10.5015 7.71421 9.52466 8.12064 8.80445 8.84409C8.08424 9.56754 7.67963 10.5488 7.67963 11.5719C7.67963 12.595 8.08424 13.5762 8.80445 14.2997C9.52466 15.0231 10.5015 15.4295 11.52 15.4295C12.5385 15.4295 13.5153 15.0231 14.2356 14.2997C14.9558 13.5762 15.3604 12.595 15.3604 11.5719C15.3604 10.5488 14.9558 9.56754 14.2356 8.84409C13.5153 8.12064 12.5385 7.71421 11.52 7.71421Z" fill="#2EB573"/>
</svg>
