<svg width="33" height="33" viewBox="0 0 33 33" fill="none" xmlns="http://www.w3.org/2000/svg">
<path d="M15.4996 4.125C17.0755 4.125 18.6359 4.42432 20.0918 5.00586C21.5477 5.5874 22.8706 6.43977 23.9849 7.51432C25.0992 8.58887 25.9831 9.86454 26.5862 11.2685C27.1892 12.6725 27.4996 14.1772 27.4996 15.6969C27.4996 20.4872 23.7127 25.507 16.2999 30.8677C16.0691 31.0347 15.7883 31.125 15.4996 31.125C15.211 31.125 14.9302 31.0347 14.6993 30.8677C7.28653 25.507 3.49963 20.4872 3.49963 15.6969C3.49963 14.1771 3.81006 12.6723 4.41319 11.2682C5.01632 9.86421 5.90034 8.58849 7.01476 7.51393C8.12919 6.43936 9.4522 5.58701 10.9082 5.00553C12.3643 4.42406 13.9237 4.12485 15.4996 4.125ZM15.4996 11.8392C14.4387 11.8392 13.4212 12.2456 12.6709 12.9691C11.9207 13.6925 11.4992 14.6738 11.4992 15.6969C11.4992 16.72 11.9207 17.7012 12.6709 18.4247C13.4212 19.1481 14.4387 19.5545 15.4996 19.5545C16.5606 19.5545 17.5781 19.1481 18.3283 18.4247C19.0786 17.7012 19.5 16.72 19.5 15.6969C19.5 14.6738 19.0786 13.6925 18.3283 12.9691C17.5781 12.2456 16.5606 11.8392 15.4996 11.8392Z" fill="#DEDEDE"/>
</svg>
