<svg width="32" height="32" viewBox="0 0 32 32" fill="none" xmlns="http://www.w3.org/2000/svg">
<g clip-path="url(#clip0_115_5788)">
<path d="M15.9999 18.2857C19.1558 18.2857 21.7142 15.7274 21.7142 12.5715C21.7142 9.41555 19.1558 6.85718 15.9999 6.85718C12.844 6.85718 10.2856 9.41555 10.2856 12.5715C10.2856 15.7274 12.844 18.2857 15.9999 18.2857Z" stroke="#2EB573" stroke-linecap="round" stroke-linejoin="round"/>
<path d="M6.23999 27.2C7.25997 25.5258 8.69349 24.142 10.4027 23.1819C12.112 22.2217 14.0395 21.7174 16 21.7174C17.9605 21.7174 19.888 22.2217 21.5972 23.1819C23.3065 24.142 24.74 25.5258 25.76 27.2" stroke="#2EB573" stroke-linecap="round" stroke-linejoin="round"/>
<path d="M16 30.8572C24.2053 30.8572 30.8571 24.2054 30.8571 16C30.8571 7.79465 24.2053 1.14288 16 1.14288C7.79459 1.14288 1.14282 7.79465 1.14282 16C1.14282 24.2054 7.79459 30.8572 16 30.8572Z" stroke="#2EB573" stroke-linecap="round" stroke-linejoin="round"/>
</g>
<defs>
<clipPath id="clip0_115_5788">
<rect width="32" height="32" fill="white"/>
</clipPath>
</defs>
</svg>
