<svg width="46" height="46" viewBox="0 0 46 46" fill="none" xmlns="http://www.w3.org/2000/svg">
<rect width="46" height="46" rx="23" fill="#2EB573"/>
<path fill-rule="evenodd" clip-rule="evenodd" d="M20.4393 24.1464L13.6921 21.8973C11.3388 21.1129 10.1622 20.7207 10.1622 20C10.1622 19.2792 11.3388 18.887 13.6921 18.1026L31.2052 12.2649C32.861 11.713 33.6889 11.437 34.1259 11.874C34.5629 12.311 34.287 13.1389 33.735 14.7947L27.8973 32.3079C27.1129 34.6611 26.7207 35.8377 26 35.8377C25.2792 35.8377 24.887 34.6611 24.1026 32.3079L21.8535 25.5606L28.2071 19.2071C28.5976 18.8166 28.5976 18.1834 28.2071 17.7929C27.8165 17.4023 27.1834 17.4023 26.7928 17.7929L20.4393 24.1464Z" fill="white"/>
</svg>
