<svg width="26" height="26" viewBox="0 0 26 26" fill="none" xmlns="http://www.w3.org/2000/svg">
<path fill-rule="evenodd" clip-rule="evenodd" d="M13.033 25.8077C20.0883 25.8077 25.8078 20.0883 25.8078 13.033C25.8078 5.97768 20.0883 0.25824 13.033 0.25824C5.97774 0.25824 0.258301 5.97768 0.258301 13.033C0.258301 20.0883 5.97774 25.8077 13.033 25.8077ZM19.4789 9.41491C19.8325 8.99063 19.7751 8.36007 19.3509 8.0065C18.9266 7.65294 18.296 7.71026 17.9425 8.13454L12.2474 14.9686C11.9007 15.3846 11.7058 15.615 11.5502 15.7565L11.5442 15.7619L11.5378 15.7571C11.37 15.6302 11.1551 15.4185 10.7721 15.0355L8.06248 12.3259C7.67195 11.9353 7.03879 11.9353 6.64826 12.3259C6.25774 12.7164 6.25774 13.3495 6.64826 13.7401L9.3579 16.4497L9.39872 16.4905C9.72522 16.8172 10.0393 17.1314 10.3316 17.3524C10.6589 17.5999 11.0876 17.8327 11.637 17.8077C12.1865 17.7828 12.5923 17.5122 12.8959 17.236C13.167 16.9895 13.4513 16.6481 13.7469 16.2933L13.7839 16.2489L19.4789 9.41491Z" fill="#2EB573"/>
</svg>
