<svg width="32" height="32" viewBox="0 0 32 32" fill="none" xmlns="http://www.w3.org/2000/svg">
<path d="M15.619 4C16.9698 4 18.3073 4.26606 19.5553 4.78298C20.8032 5.2999 21.9372 6.05756 22.8923 7.0127C23.8474 7.96784 24.6051 9.10176 25.122 10.3497C25.6389 11.5977 25.905 12.9352 25.905 14.286C25.905 18.544 22.659 23.006 16.305 27.771C16.1071 27.9195 15.8664 27.9998 15.619 27.9998C15.3716 27.9998 15.1309 27.9195 14.933 27.771C8.579 23.006 5.333 18.544 5.333 14.286C5.333 12.9351 5.59909 11.5975 6.11607 10.3495C6.63305 9.10147 7.3908 7.9675 8.34605 7.01235C9.3013 6.05719 10.4353 5.29955 11.6834 4.78269C12.9315 4.26583 14.2681 3.99987 15.619 4ZM15.619 10.857C14.7096 10.857 13.8374 11.2183 13.1943 11.8613C12.5513 12.5044 12.19 13.3766 12.19 14.286C12.19 15.1954 12.5513 16.0676 13.1943 16.7107C13.8374 17.3537 14.7096 17.715 15.619 17.715C16.5284 17.715 17.4006 17.3537 18.0437 16.7107C18.6867 16.0676 19.048 15.1954 19.048 14.286C19.048 13.3766 18.6867 12.5044 18.0437 11.8613C17.4006 11.2183 16.5284 10.857 15.619 10.857Z" fill="#FFA710"/>
</svg>
