<svg width="24" height="24" viewBox="0 0 24 24" fill="none" xmlns="http://www.w3.org/2000/svg">
<g clip-path="url(#clip0_116_396)">
<mask id="mask0_116_396" style="mask-type:alpha" maskUnits="userSpaceOnUse" x="0" y="0" width="24" height="24">
<path d="M0 0H24V24H0V0Z" fill="#D9D9D9"/>
</mask>
<g mask="url(#mask0_116_396)">
<path d="M5.46501 21.75C4.82601 21.75 4.28901 21.532 3.85301 21.097C3.41801 20.661 3.20001 20.124 3.20001 19.485V6.41501C3.20001 5.77701 3.41801 5.23901 3.85301 4.80401C4.28901 4.36801 4.82601 4.15001 5.46501 4.15001H6.43501V2.88301C6.43501 2.64501 6.51901 2.44101 6.68701 2.27301C6.76615 2.19131 6.8612 2.12671 6.9663 2.08319C7.07139 2.03968 7.18428 2.01817 7.29801 2.02001C7.53601 2.02001 7.74001 2.10401 7.90801 2.27201C7.98971 2.35115 8.05431 2.4462 8.09783 2.55129C8.14134 2.65638 8.16285 2.76928 8.16101 2.88301V4.15001H15.915V2.84501C15.915 2.61901 15.996 2.42501 16.159 2.26301C16.2342 2.18502 16.3245 2.12323 16.4244 2.08144C16.5243 2.03965 16.6317 2.01874 16.74 2.02001C16.966 2.02001 17.16 2.10001 17.322 2.26301C17.4001 2.33827 17.462 2.42875 17.5038 2.52884C17.5456 2.62894 17.5664 2.73654 17.565 2.84501V4.15001H18.535C19.174 4.15001 19.711 4.36801 20.146 4.80401C20.582 5.23901 20.8 5.77701 20.8 6.41601V19.485C20.8 20.124 20.582 20.661 20.146 21.097C19.711 21.532 19.174 21.75 18.535 21.75H5.46501ZM5.46501 20.1H18.535C18.6149 20.0984 18.6936 20.0806 18.7663 20.0475C18.839 20.0145 18.9042 19.9671 18.958 19.908C19.0171 19.8542 19.0645 19.789 19.0976 19.7163C19.1306 19.6435 19.1484 19.5649 19.15 19.485V10.115H4.85001V19.485C4.85001 19.639 4.91401 19.78 5.04201 19.908C5.17001 20.036 5.31201 20.1 5.46501 20.1Z" fill="#525252"/>
</g>
</g>
<defs>
<clipPath id="clip0_116_396">
<rect width="24" height="24" fill="white"/>
</clipPath>
</defs>
</svg>
