<svg width="92" height="16" viewBox="0 0 92 16" fill="none" xmlns="http://www.w3.org/2000/svg">
    <g clip-path="url(#clip0_236_553)">
        <path d="M8.56 1.24571L10.3771 4.91428C10.4185 5.0074 10.4835 5.08805 10.5657 5.14821C10.6479 5.20837 10.7445 5.24592 10.8457 5.25714L14.8571 5.85143C14.9733 5.86635 15.0828 5.91402 15.1729 5.98886C15.2629 6.0637 15.3299 6.16262 15.3658 6.27407C15.4018 6.38552 15.4053 6.5049 15.3759 6.61826C15.3465 6.73163 15.2855 6.8343 15.2 6.91428L12.3086 9.78286C12.2348 9.8518 12.1794 9.9381 12.1475 10.0339C12.1155 10.1297 12.108 10.232 12.1257 10.3314L12.8229 14.3657C12.843 14.4816 12.8303 14.6009 12.786 14.7099C12.7418 14.819 12.6678 14.9134 12.5726 14.9824C12.4773 15.0515 12.3646 15.0924 12.2472 15.1006C12.1298 15.1088 12.0125 15.0838 11.9086 15.0286L8.29715 13.12C8.20467 13.0746 8.10302 13.051 8 13.051C7.89699 13.051 7.79534 13.0746 7.70286 13.12L4.09143 15.0286C3.98753 15.0838 3.87022 15.1088 3.75283 15.1006C3.63545 15.0924 3.52271 15.0515 3.42745 14.9824C3.33218 14.9134 3.25822 14.819 3.21397 14.7099C3.16972 14.6009 3.15696 14.4816 3.17715 14.3657L3.87429 10.2857C3.89196 10.1863 3.88448 10.084 3.85255 9.9882C3.82061 9.89239 3.76523 9.80609 3.69143 9.73714L0.765717 6.91428C0.67916 6.83211 0.618289 6.7266 0.590476 6.61053C0.562664 6.49446 0.569104 6.37282 0.609017 6.26034C0.648929 6.14786 0.720602 6.04936 0.815352 5.97679C0.910103 5.90421 1.02387 5.86066 1.14286 5.85143L5.15429 5.25714C5.25554 5.24592 5.35209 5.20837 5.43431 5.14821C5.51652 5.08805 5.58153 5.0074 5.62286 4.91428L7.44 1.24571C7.48949 1.13886 7.56851 1.0484 7.66773 0.985007C7.76696 0.92161 7.88225 0.887924 8 0.887924C8.11775 0.887924 8.23305 0.92161 8.33227 0.985007C8.4315 1.0484 8.51052 1.13886 8.56 1.24571Z" fill="#FFA710" stroke="#FFA710" stroke-linecap="round" stroke-linejoin="round"/>
    </g>
    <g clip-path="url(#clip1_236_553)">
        <path d="M27.56 1.24571L29.3771 4.91428C29.4185 5.0074 29.4835 5.08805 29.5657 5.14821C29.6479 5.20837 29.7445 5.24592 29.8457 5.25714L33.8571 5.85143C33.9733 5.86635 34.0828 5.91402 34.1729 5.98886C34.2629 6.0637 34.3299 6.16262 34.3658 6.27407C34.4018 6.38552 34.4053 6.5049 34.3759 6.61826C34.3465 6.73163 34.2855 6.8343 34.2 6.91428L31.3086 9.78286C31.2348 9.8518 31.1794 9.9381 31.1475 10.0339C31.1155 10.1297 31.108 10.232 31.1257 10.3314L31.8229 14.3657C31.843 14.4816 31.8303 14.6009 31.786 14.7099C31.7418 14.819 31.6678 14.9134 31.5726 14.9824C31.4773 15.0515 31.3646 15.0924 31.2472 15.1006C31.1298 15.1088 31.0125 15.0838 30.9086 15.0286L27.2971 13.12C27.2047 13.0746 27.103 13.051 27 13.051C26.897 13.051 26.7953 13.0746 26.7029 13.12L23.0914 15.0286C22.9875 15.0838 22.8702 15.1088 22.7528 15.1006C22.6354 15.0924 22.5227 15.0515 22.4274 14.9824C22.3322 14.9134 22.2582 14.819 22.214 14.7099C22.1697 14.6009 22.157 14.4816 22.1771 14.3657L22.8743 10.2857C22.892 10.1863 22.8845 10.084 22.8525 9.9882C22.8206 9.89239 22.7652 9.80609 22.6914 9.73714L19.7657 6.91428C19.6792 6.83211 19.6183 6.7266 19.5905 6.61053C19.5627 6.49446 19.5691 6.37282 19.609 6.26034C19.6489 6.14786 19.7206 6.04936 19.8154 5.97679C19.9101 5.90421 20.0239 5.86066 20.1429 5.85143L24.1543 5.25714C24.2555 5.24592 24.3521 5.20837 24.4343 5.14821C24.5165 5.08805 24.5815 5.0074 24.6229 4.91428L26.44 1.24571C26.4895 1.13886 26.5685 1.0484 26.6677 0.985007C26.767 0.92161 26.8823 0.887924 27 0.887924C27.1178 0.887924 27.233 0.92161 27.3323 0.985007C27.4315 1.0484 27.5105 1.13886 27.56 1.24571Z" fill="#FFA710" stroke="#FFA710" stroke-linecap="round" stroke-linejoin="round"/>
    </g>
    <g clip-path="url(#clip2_236_553)">
        <path d="M46.56 1.24571L48.3771 4.91428C48.4185 5.0074 48.4835 5.08805 48.5657 5.14821C48.6479 5.20837 48.7445 5.24592 48.8457 5.25714L52.8571 5.85143C52.9733 5.86635 53.0828 5.91402 53.1729 5.98886C53.2629 6.0637 53.3299 6.16262 53.3658 6.27407C53.4018 6.38552 53.4053 6.5049 53.3759 6.61826C53.3465 6.73163 53.2855 6.8343 53.2 6.91428L50.3086 9.78286C50.2348 9.8518 50.1794 9.9381 50.1475 10.0339C50.1155 10.1297 50.108 10.232 50.1257 10.3314L50.8229 14.3657C50.843 14.4816 50.8303 14.6009 50.786 14.7099C50.7418 14.819 50.6678 14.9134 50.5726 14.9824C50.4773 15.0515 50.3646 15.0924 50.2472 15.1006C50.1298 15.1088 50.0125 15.0838 49.9086 15.0286L46.2971 13.12C46.2047 13.0746 46.103 13.051 46 13.051C45.897 13.051 45.7953 13.0746 45.7029 13.12L42.0914 15.0286C41.9875 15.0838 41.8702 15.1088 41.7528 15.1006C41.6354 15.0924 41.5227 15.0515 41.4274 14.9824C41.3322 14.9134 41.2582 14.819 41.214 14.7099C41.1697 14.6009 41.157 14.4816 41.1771 14.3657L41.8743 10.2857C41.892 10.1863 41.8845 10.084 41.8525 9.9882C41.8206 9.89239 41.7652 9.80609 41.6914 9.73714L38.7657 6.91428C38.6792 6.83211 38.6183 6.7266 38.5905 6.61053C38.5627 6.49446 38.5691 6.37282 38.609 6.26034C38.6489 6.14786 38.7206 6.04936 38.8154 5.97679C38.9101 5.90421 39.0239 5.86066 39.1429 5.85143L43.1543 5.25714C43.2555 5.24592 43.3521 5.20837 43.4343 5.14821C43.5165 5.08805 43.5815 5.0074 43.6229 4.91428L45.44 1.24571C45.4895 1.13886 45.5685 1.0484 45.6677 0.985007C45.767 0.92161 45.8823 0.887924 46 0.887924C46.1178 0.887924 46.233 0.92161 46.3323 0.985007C46.4315 1.0484 46.5105 1.13886 46.56 1.24571Z" fill="#FFA710" stroke="#FFA710" stroke-linecap="round" stroke-linejoin="round"/>
    </g>
    <g clip-path="url(#clip3_236_553)">
        <path d="M65.56 1.24571L67.3771 4.91428C67.4185 5.0074 67.4835 5.08805 67.5657 5.14821C67.6479 5.20837 67.7445 5.24592 67.8457 5.25714L71.8571 5.85143C71.9733 5.86635 72.0828 5.91402 72.1729 5.98886C72.2629 6.0637 72.3299 6.16262 72.3658 6.27407C72.4018 6.38552 72.4053 6.5049 72.3759 6.61826C72.3465 6.73163 72.2855 6.8343 72.2 6.91428L69.3086 9.78286C69.2348 9.8518 69.1794 9.9381 69.1475 10.0339C69.1155 10.1297 69.108 10.232 69.1257 10.3314L69.8229 14.3657C69.843 14.4816 69.8303 14.6009 69.786 14.7099C69.7418 14.819 69.6678 14.9134 69.5726 14.9824C69.4773 15.0515 69.3646 15.0924 69.2472 15.1006C69.1298 15.1088 69.0125 15.0838 68.9086 15.0286L65.2971 13.12C65.2047 13.0746 65.103 13.051 65 13.051C64.897 13.051 64.7953 13.0746 64.7029 13.12L61.0914 15.0286C60.9875 15.0838 60.8702 15.1088 60.7528 15.1006C60.6354 15.0924 60.5227 15.0515 60.4274 14.9824C60.3322 14.9134 60.2582 14.819 60.214 14.7099C60.1697 14.6009 60.157 14.4816 60.1771 14.3657L60.8743 10.2857C60.892 10.1863 60.8845 10.084 60.8525 9.9882C60.8206 9.89239 60.7652 9.80609 60.6914 9.73714L57.7657 6.91428C57.6792 6.83211 57.6183 6.7266 57.5905 6.61053C57.5627 6.49446 57.5691 6.37282 57.609 6.26034C57.6489 6.14786 57.7206 6.04936 57.8154 5.97679C57.9101 5.90421 58.0239 5.86066 58.1429 5.85143L62.1543 5.25714C62.2555 5.24592 62.3521 5.20837 62.4343 5.14821C62.5165 5.08805 62.5815 5.0074 62.6229 4.91428L64.44 1.24571C64.4895 1.13886 64.5685 1.0484 64.6677 0.985007C64.767 0.92161 64.8823 0.887924 65 0.887924C65.1178 0.887924 65.233 0.92161 65.3323 0.985007C65.4315 1.0484 65.5105 1.13886 65.56 1.24571Z" fill="#DEDEDE" stroke="#DEDEDE" stroke-linecap="round" stroke-linejoin="round"/>
    </g>
    <g clip-path="url(#clip4_236_553)">
        <path d="M84.56 1.24571L86.3771 4.91428C86.4185 5.0074 86.4835 5.08805 86.5657 5.14821C86.6479 5.20837 86.7445 5.24592 86.8457 5.25714L90.8571 5.85143C90.9733 5.86635 91.0828 5.91402 91.1729 5.98886C91.2629 6.0637 91.3299 6.16262 91.3658 6.27407C91.4018 6.38552 91.4053 6.5049 91.3759 6.61826C91.3465 6.73163 91.2855 6.8343 91.2 6.91428L88.3086 9.78286C88.2348 9.8518 88.1794 9.9381 88.1475 10.0339C88.1155 10.1297 88.108 10.232 88.1257 10.3314L88.8229 14.3657C88.843 14.4816 88.8303 14.6009 88.786 14.7099C88.7418 14.819 88.6678 14.9134 88.5726 14.9824C88.4773 15.0515 88.3646 15.0924 88.2472 15.1006C88.1298 15.1088 88.0125 15.0838 87.9086 15.0286L84.2971 13.12C84.2047 13.0746 84.103 13.051 84 13.051C83.897 13.051 83.7953 13.0746 83.7029 13.12L80.0914 15.0286C79.9875 15.0838 79.8702 15.1088 79.7528 15.1006C79.6354 15.0924 79.5227 15.0515 79.4274 14.9824C79.3322 14.9134 79.2582 14.819 79.214 14.7099C79.1697 14.6009 79.157 14.4816 79.1771 14.3657L79.8743 10.2857C79.892 10.1863 79.8845 10.084 79.8525 9.9882C79.8206 9.89239 79.7652 9.80609 79.6914 9.73714L76.7657 6.91428C76.6792 6.83211 76.6183 6.7266 76.5905 6.61053C76.5627 6.49446 76.5691 6.37282 76.609 6.26034C76.6489 6.14786 76.7206 6.04936 76.8154 5.97679C76.9101 5.90421 77.0239 5.86066 77.1429 5.85143L81.1543 5.25714C81.2555 5.24592 81.3521 5.20837 81.4343 5.14821C81.5165 5.08805 81.5815 5.0074 81.6229 4.91428L83.44 1.24571C83.4895 1.13886 83.5685 1.0484 83.6677 0.985007C83.767 0.92161 83.8823 0.887924 84 0.887924C84.1178 0.887924 84.233 0.92161 84.3323 0.985007C84.4315 1.0484 84.5105 1.13886 84.56 1.24571Z" fill="#DEDEDE" stroke="#DEDEDE" stroke-linecap="round" stroke-linejoin="round"/>
    </g>
    <defs>
        <clipPath id="clip0_236_553">
            <rect width="16" height="16" fill="white"/>
        </clipPath>
        <clipPath id="clip1_236_553">
            <rect width="16" height="16" fill="white" transform="translate(19)"/>
        </clipPath>
        <clipPath id="clip2_236_553">
            <rect width="16" height="16" fill="white" transform="translate(38)"/>
        </clipPath>
        <clipPath id="clip3_236_553">
            <rect width="16" height="16" fill="white" transform="translate(57)"/>
        </clipPath>
        <clipPath id="clip4_236_553">
            <rect width="16" height="16" fill="white" transform="translate(76)"/>
        </clipPath>
    </defs>
</svg>
