<svg width="21" height="20" viewBox="0 0 21 20" fill="none" xmlns="http://www.w3.org/2000/svg">
<path d="M10.32 1.76001C8.14281 1.76125 6.05529 2.62725 4.51656 4.16751C2.97784 5.70778 2.11394 7.79617 2.11487 9.97334C2.11487 14.5071 5.7874 18.1867 10.32 18.1867C12.4993 18.1876 14.5898 17.3228 16.1316 15.7826C17.6734 14.2423 18.5403 12.1527 18.5415 9.97334C18.5415 5.43958 14.862 1.76001 10.32 1.76001ZM10.3282 16.544C9.46524 16.5443 8.61068 16.3746 7.81335 16.0445C7.01602 15.7144 6.29156 15.2304 5.68135 14.6202C5.07115 14.01 4.58717 13.2855 4.25707 12.4882C3.92697 11.6909 3.75723 10.8363 3.75754 9.97334C3.75754 6.34305 6.69791 3.40268 10.3282 3.40268C13.9585 3.40268 16.8989 6.34305 16.8989 9.97334C16.8989 13.6036 13.9585 16.544 10.3282 16.544ZM10.1475 5.86668H10.0982C10.0205 5.86637 9.94345 5.88145 9.87156 5.91106C9.79967 5.94067 9.73436 5.98422 9.67938 6.03919C9.62441 6.09416 9.58086 6.15948 9.55125 6.23137C9.52164 6.30325 9.50656 6.38029 9.50687 6.45804V10.3347C9.50687 10.6222 9.65471 10.8932 9.90932 11.0411L13.3179 13.0862C13.4005 13.137 13.4945 13.1664 13.5914 13.1718C13.6882 13.1773 13.7849 13.1586 13.8728 13.1174C13.9606 13.0762 14.0369 13.0138 14.0946 12.9359C14.1524 12.8579 14.1899 12.7669 14.2037 12.6708C14.2219 12.5544 14.2042 12.4351 14.1531 12.3289C14.102 12.2226 14.0198 12.1344 13.9174 12.076L10.7389 10.1869V6.45804C10.7392 6.38029 10.7241 6.30325 10.6945 6.23137C10.6649 6.15948 10.6213 6.09416 10.5664 6.03919C10.5114 5.98422 10.4461 5.94067 10.3742 5.91106C10.3023 5.88145 10.2253 5.86637 10.1475 5.86668Z" fill="#212121"/>
</svg>
