<svg width="911" height="520" viewBox="0 0 911 520" fill="none" xmlns="http://www.w3.org/2000/svg">
<g filter="url(#filter0_dd_124_1451)">
<path d="M147.4 379.861H828.6" stroke="#E4E4E4" stroke-opacity="0.2" stroke-linecap="square"/>
<path d="M147.4 325.674H828.6" stroke="#E4E4E4" stroke-opacity="0.2" stroke-linecap="square"/>
<path d="M147.4 271.487H828.6" stroke="#E4E4E4" stroke-opacity="0.2" stroke-linecap="square"/>
<path d="M147.4 217.3H828.6" stroke="#E4E4E4" stroke-opacity="0.2" stroke-linecap="square"/>
<path d="M147.4 163.113H828.6" stroke="#E4E4E4" stroke-opacity="0.2" stroke-linecap="square"/>
<path fill-rule="evenodd" clip-rule="evenodd" d="M651.002 378.56V241.157C651.002 229.229 660.672 219.559 672.6 219.559C684.528 219.559 694.198 229.229 694.198 241.157V378.56H651.002Z" fill="#E4E4E4"/>
<path fill-rule="evenodd" clip-rule="evenodd" d="M526.911 378.56V164.773C526.911 152.845 536.581 143.175 548.509 143.175C560.437 143.175 570.107 152.845 570.107 164.773V378.56H526.911Z" fill="#6BC79A"/>
<path fill-rule="evenodd" clip-rule="evenodd" d="M399.866 378.56V311.086C399.866 299.158 409.535 289.488 421.464 289.488C433.392 289.488 443.061 299.158 443.061 311.086V378.56H399.866Z" fill="#E4E4E4"/>
<path fill-rule="evenodd" clip-rule="evenodd" d="M275.775 378.56V254.067C275.775 242.139 285.445 232.469 297.373 232.469C309.301 232.469 318.97 242.139 318.97 254.067V378.56H275.775Z" fill="#E4E4E4"/>
<path fill-rule="evenodd" clip-rule="evenodd" d="M780.5 378.56L780.5 254.569C780.5 242.364 790.395 232.469 802.6 232.469C814.805 232.469 824.7 242.364 824.7 254.569V378.56H780.5Z" fill="#E4E4E4"/>
<path fill-rule="evenodd" clip-rule="evenodd" d="M145.805 378.56V346.783C145.805 334.153 156.043 323.915 168.673 323.915C181.302 323.915 191.541 334.153 191.541 346.783V378.56H145.805Z" fill="#E4E4E4"/>
<path d="M666.687 417.637C664.775 417.637 663.325 416.458 663.245 414.824H664.519C664.614 415.769 665.537 416.472 666.687 416.48C668.064 416.472 669.06 415.469 669.06 414.136C669.06 412.759 668.027 411.741 666.599 411.734C665.705 411.719 665.01 411.997 664.621 412.686H663.347L664.094 406.885H669.836V408.057H665.193L664.797 411.162H664.9C665.376 410.796 666.086 410.547 666.833 410.547C668.855 410.547 670.342 412.041 670.349 414.107C670.342 416.157 668.804 417.637 666.687 417.637ZM682.449 405.669V413.345H681.291V412.627H678.655V411.865H681.291V405.669H682.449ZM671.667 410.576C674.187 410.591 677.41 410.562 680.222 410.254L680.295 411.001C679.021 411.184 677.695 411.294 676.399 411.353V413.389H675.271V411.397C674.04 411.441 672.854 411.441 671.799 411.441L671.667 410.576ZM672.678 407.881C672.678 406.672 673.953 405.918 675.915 405.918C677.856 405.918 679.138 406.672 679.153 407.881C679.138 409.097 677.856 409.822 675.915 409.829C673.953 409.822 672.678 409.097 672.678 407.881ZM673.66 414.649V413.814H682.449V416.509H674.846V417.681H682.873V418.53H673.718V415.703H681.306V414.649H673.66ZM673.762 407.881C673.755 408.569 674.604 409.038 675.915 409.038C677.212 409.038 678.061 408.569 678.069 407.881C678.061 407.185 677.212 406.716 675.915 406.724C674.604 406.716 673.755 407.185 673.762 407.881Z" fill="#999999"/>
<path d="M537.725 415.322V414.238L542.5 406.885H544.126V414.165H545.606V415.322H544.126V417.49H542.867V415.322H537.725ZM539.146 414.165H542.867V408.555H542.735L539.146 414.077V414.165ZM557.617 405.669V413.345H556.46V412.627H553.824V411.865H556.46V405.669H557.617ZM546.836 410.576C549.356 410.591 552.578 410.562 555.391 410.254L555.464 411.001C554.19 411.184 552.864 411.294 551.568 411.353V413.389H550.44V411.397C549.209 411.441 548.023 411.441 546.968 411.441L546.836 410.576ZM547.847 407.881C547.847 406.672 549.121 405.918 551.084 405.918C553.025 405.918 554.307 406.672 554.322 407.881C554.307 409.097 553.025 409.822 551.084 409.829C549.121 409.822 547.847 409.097 547.847 407.881ZM548.828 414.649V413.814H557.617V416.509H550.015V417.681H558.042V418.53H548.887V415.703H556.475V414.649H548.828ZM548.931 407.881C548.924 408.569 549.773 409.038 551.084 409.038C552.381 409.038 553.23 408.569 553.238 407.881C553.23 407.185 552.381 406.716 551.084 406.724C549.773 406.716 548.924 407.185 548.931 407.881Z" fill="#2EB573"/>
<path d="M415.779 417.637C413.67 417.637 412.154 416.509 412.088 414.824H413.421C413.494 415.835 414.498 416.465 415.765 416.465C417.164 416.465 418.174 415.711 418.182 414.605C418.174 413.447 417.251 412.634 415.603 412.627H414.739V411.47H415.603C416.893 411.47 417.793 410.745 417.786 409.653C417.793 408.591 417.017 407.888 415.809 407.881C414.673 407.888 413.641 408.511 413.582 409.551H412.308C412.373 407.866 413.941 406.738 415.823 406.738C417.845 406.738 419.075 408.064 419.06 409.58C419.075 410.789 418.372 411.668 417.259 411.983V412.056C418.643 412.268 419.478 413.257 419.471 414.605C419.478 416.348 417.896 417.637 415.779 417.637ZM431.644 405.669V413.345H430.486V412.627H427.85V411.865H430.486V405.669H431.644ZM420.862 410.576C423.382 410.591 426.604 410.562 429.417 410.254L429.49 411.001C428.216 411.184 426.89 411.294 425.594 411.353V413.389H424.466V411.397C423.235 411.441 422.049 411.441 420.994 411.441L420.862 410.576ZM421.873 407.881C421.873 406.672 423.147 405.918 425.11 405.918C427.051 405.918 428.333 406.672 428.348 407.881C428.333 409.097 427.051 409.822 425.11 409.829C423.147 409.822 421.873 409.097 421.873 407.881ZM422.854 414.649V413.814H431.644V416.509H424.041V417.681H432.068V418.53H422.913V415.703H430.501V414.649H422.854ZM422.957 407.881C422.95 408.569 423.799 409.038 425.11 409.038C426.407 409.038 427.256 408.569 427.264 407.881C427.256 407.185 426.407 406.716 425.11 406.724C423.799 406.716 422.95 407.185 422.957 407.881Z" fill="#999999"/>
<path d="M287.308 417.49L287.293 416.524L290.911 412.715C292.164 411.382 292.764 410.664 292.772 409.683C292.764 408.591 291.856 407.888 290.662 407.881C289.395 407.888 288.604 408.687 288.597 409.873H287.352C287.337 407.998 288.787 406.738 290.706 406.738C292.632 406.738 293.995 408.035 294.002 409.683C293.995 410.869 293.445 411.792 291.57 413.726L289.139 416.231V416.318H294.192V417.49H287.308ZM306.38 405.669V413.345H305.223V412.627H302.586V411.865H305.223V405.669H306.38ZM295.599 410.576C298.118 410.591 301.341 410.562 304.153 410.254L304.227 411.001C302.952 411.184 301.627 411.294 300.33 411.353V413.389H299.202V411.397C297.972 411.441 296.785 411.441 295.731 411.441L295.599 410.576ZM296.609 407.881C296.609 406.672 297.884 405.918 299.847 405.918C301.788 405.918 303.069 406.672 303.084 407.881C303.069 409.097 301.788 409.822 299.847 409.829C297.884 409.822 296.609 409.097 296.609 407.881ZM297.591 414.649V413.814H306.38V416.509H298.777V417.681H306.805V418.53H297.65V415.703H305.237V414.649H297.591ZM297.693 407.881C297.686 408.569 298.536 409.038 299.847 409.038C301.143 409.038 301.993 408.569 302 407.881C301.993 407.185 301.143 406.716 299.847 406.724C298.536 406.716 297.686 407.185 297.693 407.881Z" fill="#999999"/>
<path d="M796.029 417.637C794.19 417.615 792.161 416.524 792.161 412.598C792.161 408.84 793.7 406.738 796.19 406.738C798.057 406.738 799.361 407.888 799.632 409.551H798.328C798.087 408.613 797.369 407.91 796.19 407.91C794.447 407.91 793.399 409.397 793.407 411.953H793.538C794.146 411.067 795.12 410.547 796.263 410.547C798.145 410.547 799.72 412.012 799.72 414.063C799.72 416.062 798.263 417.659 796.029 417.637ZM793.582 414.092C793.59 415.337 794.608 416.472 796.029 416.48C797.398 416.472 798.438 415.396 798.446 414.077C798.438 412.774 797.442 411.712 796.058 411.704C794.666 411.712 793.597 412.839 793.582 414.092ZM811.805 405.669V413.345H810.648V412.627H808.011V411.865H810.648V405.669H811.805ZM801.024 410.576C803.543 410.591 806.766 410.562 809.578 410.254L809.652 411.001C808.377 411.184 807.052 411.294 805.755 411.353V413.389H804.627V411.397C803.397 411.441 802.21 411.441 801.156 411.441L801.024 410.576ZM802.035 407.881C802.035 406.672 803.309 405.918 805.272 405.918C807.213 405.918 808.494 406.672 808.509 407.881C808.494 409.097 807.213 409.822 805.272 409.829C803.309 409.822 802.035 409.097 802.035 407.881ZM803.016 414.649V413.814H811.805V416.509H804.202V417.681H812.23V418.53H803.075V415.703H810.662V414.649H803.016ZM803.119 407.881C803.111 408.569 803.961 409.038 805.272 409.038C806.568 409.038 807.418 408.569 807.425 407.881C807.418 407.185 806.568 406.716 805.272 406.724C803.961 406.716 803.111 407.185 803.119 407.881Z" fill="#999999"/>
<path d="M163.471 406.885V417.49H162.138V408.262H162.079L159.501 409.976V408.643L162.138 406.885H163.471ZM176.567 405.669V413.345H175.409V412.627H172.773V411.865H175.409V405.669H176.567ZM165.785 410.576C168.305 410.591 171.528 410.562 174.34 410.254L174.413 411.001C173.139 411.184 171.813 411.294 170.517 411.353V413.389H169.389V411.397C168.158 411.441 166.972 411.441 165.917 411.441L165.785 410.576ZM166.796 407.881C166.796 406.672 168.071 405.918 170.033 405.918C171.974 405.918 173.256 406.672 173.271 407.881C173.256 409.097 171.974 409.822 170.033 409.829C168.071 409.822 166.796 409.097 166.796 407.881ZM167.778 414.649V413.814H176.567V416.509H168.964V417.681H176.992V418.53H167.836V415.703H175.424V414.649H167.778ZM167.88 407.881C167.873 408.569 168.722 409.038 170.033 409.038C171.33 409.038 172.179 408.569 172.187 407.881C172.179 407.185 171.33 406.716 170.033 406.724C168.722 406.716 167.873 407.185 167.88 407.881Z" fill="#999999"/>
<path d="M124.732 381.024C122.381 381.024 121.019 379.046 121.026 375.575C121.019 372.132 122.396 370.125 124.732 370.125C127.061 370.125 128.438 372.132 128.438 375.575C128.438 379.046 127.083 381.024 124.732 381.024ZM122.301 375.575C122.308 378.321 123.194 379.852 124.732 379.852C126.263 379.852 127.157 378.321 127.149 375.575C127.157 372.828 126.256 371.275 124.732 371.268C123.209 371.275 122.308 372.828 122.301 375.575Z" fill="#999999"/>
<path d="M124.703 326.837C122.791 326.837 121.341 325.658 121.261 324.024H122.535C122.63 324.969 123.553 325.672 124.703 325.68C126.08 325.672 127.076 324.669 127.076 323.336C127.076 321.959 126.043 320.941 124.615 320.933C123.721 320.919 123.026 321.197 122.637 321.886H121.363L122.11 316.085H127.852V317.257H123.209L122.813 320.362H122.916C123.392 319.996 124.102 319.747 124.849 319.747C126.871 319.747 128.358 321.241 128.365 323.307C128.358 325.357 126.82 326.837 124.703 326.837Z" fill="#999999"/>
<path d="M118.433 261.898V272.503H117.1V263.275H117.042L114.464 264.989V263.656L117.1 261.898H118.433ZM124.732 272.65C122.381 272.65 121.019 270.672 121.026 267.2C121.019 263.758 122.396 261.751 124.732 261.751C127.061 261.751 128.438 263.758 128.438 267.2C128.438 270.672 127.083 272.65 124.732 272.65ZM122.301 267.2C122.308 269.947 123.194 271.478 124.732 271.478C126.263 271.478 127.157 269.947 127.149 267.2C127.157 264.454 126.256 262.901 124.732 262.894C123.209 262.901 122.308 264.454 122.301 267.2Z" fill="#999999"/>
<path d="M118.419 207.711V218.316H117.086V209.088H117.027L114.449 210.801V209.468L117.086 207.711H118.419ZM124.703 218.463C122.791 218.463 121.341 217.283 121.261 215.65H122.535C122.63 216.595 123.553 217.298 124.703 217.305C126.08 217.298 127.076 216.295 127.076 214.962C127.076 213.585 126.043 212.567 124.615 212.559C123.721 212.545 123.026 212.823 122.637 213.511H121.363L122.11 207.711H127.852V208.883H123.209L122.813 211.988H122.916C123.392 211.622 124.102 211.373 124.849 211.373C126.871 211.373 128.358 212.867 128.365 214.932C128.358 216.983 126.82 218.463 124.703 218.463Z" fill="#999999"/>
<path d="M112.457 164.129L112.442 163.162L116.06 159.354C117.313 158.021 117.913 157.303 117.921 156.321C117.913 155.23 117.005 154.527 115.811 154.52C114.544 154.527 113.753 155.325 113.746 156.512H112.501C112.486 154.637 113.936 153.377 115.855 153.377C117.782 153.377 119.144 154.673 119.151 156.321C119.144 157.508 118.595 158.431 116.72 160.364L114.288 162.869V162.957H119.342V164.129H112.457ZM124.732 164.276C122.381 164.276 121.019 162.298 121.026 158.826C121.019 155.384 122.396 153.377 124.732 153.377C127.061 153.377 128.438 155.384 128.438 158.826C128.438 162.298 127.083 164.276 124.732 164.276ZM122.301 158.826C122.308 161.573 123.194 163.104 124.732 163.104C126.263 163.104 127.157 161.573 127.149 158.826C127.157 156.08 126.256 154.527 124.732 154.52C123.209 154.527 122.308 156.08 122.301 158.826Z" fill="#999999"/>
<rect x="32.75" y="12.75" width="845.5" height="454.5" stroke="white" stroke-width="0.5"/>
</g>
<defs>
<filter id="filter0_dd_124_1451" x="0.5" y="0.5" width="910" height="519" filterUnits="userSpaceOnUse" color-interpolation-filters="sRGB">
<feFlood flood-opacity="0" result="BackgroundImageFix"/>
<feColorMatrix in="SourceAlpha" type="matrix" values="0 0 0 0 0 0 0 0 0 0 0 0 0 0 0 0 0 0 127 0" result="hardAlpha"/>
<feOffset dy="20"/>
<feGaussianBlur stdDeviation="16"/>
<feColorMatrix type="matrix" values="0 0 0 0 0.196487 0 0 0 0 0.196487 0 0 0 0 0.279476 0 0 0 0.05 0"/>
<feBlend mode="multiply" in2="BackgroundImageFix" result="effect1_dropShadow_124_1451"/>
<feColorMatrix in="SourceAlpha" type="matrix" values="0 0 0 0 0 0 0 0 0 0 0 0 0 0 0 0 0 0 127 0" result="hardAlpha"/>
<feOffset dy="10"/>
<feGaussianBlur stdDeviation="7.5"/>
<feColorMatrix type="matrix" values="0 0 0 0 0.196487 0 0 0 0 0.196487 0 0 0 0 0.279476 0 0 0 0.08 0"/>
<feBlend mode="multiply" in2="effect1_dropShadow_124_1451" result="effect2_dropShadow_124_1451"/>
<feBlend mode="normal" in="SourceGraphic" in2="effect2_dropShadow_124_1451" result="shape"/>
</filter>
</defs>
</svg>
