<svg width="72" height="72" viewBox="0 0 72 72" fill="none" xmlns="http://www.w3.org/2000/svg">
<mask id="mask0_124_1306" style="mask-type:luminance" maskUnits="userSpaceOnUse" x="0" y="0" width="72" height="72">
<path d="M72 36C72 16.1177 55.8823 0 36 0C16.1177 0 0 16.1177 0 36C0 55.8823 16.1177 72 36 72C55.8823 72 72 55.8823 72 36Z" fill="white"/>
</mask>
<g mask="url(#mask0_124_1306)">
<path d="M72 0.000183105H0V72.0002H72V0.000183105Z" fill="#FFAD08"/>
<path d="M31.8842 65.9507C51.7392 64.9101 66.9913 47.9709 65.9507 28.1159C64.9102 8.26093 47.971 -6.99119 28.116 -5.95064C8.26098 -4.91008 -6.99114 12.0291 -5.95058 31.8841C-4.91002 51.7391 12.0292 66.9913 31.8842 65.9507Z" fill="#73B06F"/>
<path d="M16.2886 37.0236C20.5553 38.0091 24.5079 37.4192 28.1463 35.2539" stroke="black" stroke-width="2.22222" stroke-linecap="round"/>
<path d="M12.1912 29.0008C11.9766 27.9822 11.2009 27.3013 10.4586 27.48C9.71628 27.6587 9.28841 28.6293 9.50295 29.6479C9.71748 30.6665 10.4932 31.3474 11.2355 31.1687C11.9778 30.99 12.4057 30.0194 12.1912 29.0008Z" fill="black"/>
<path d="M32.042 26.5634C31.8275 25.5448 31.0518 24.864 30.3094 25.0427C29.5671 25.2214 29.1392 26.192 29.3538 27.2106C29.5683 28.2292 30.344 28.91 31.0863 28.7313C31.8287 28.5526 32.2565 27.582 32.042 26.5634Z" fill="black"/>
</g>
</svg>
